<?xml version="1.0" encoding="UTF-8"?>
<svg id="Layer_1" data-name="Layer 1" xmlns="http://www.w3.org/2000/svg" viewBox="0 0 32 32">
  <defs>
    <style>
      .cls-1 {
        fill: #62ba46;
      }
    </style>
  </defs>
  <path class="cls-1" d="M14.1,26.2c-.2-.2-.3-.4-.5-.7-.3-.5-.4-1-.5-1.5-.3-.3-.5-.5-.8-.8-.9-1.2-1.2-2.5-1.2-3.6-2.2,2.4-3.1,3.5-5.3,6,.6,1,1.8,2.7,3.9,4.1,2.6,1.7,5.2,2,6.3,2l1.1-2.9c-.8-.1-1.5-.4-2-.9-.5-.4-.8-1-1-1.6Z"/>
  <path class="cls-1" d="M12.8,9.8c.3.5.3,1,.5,1.6,1.3-1,1.5-1.2,1.5-1.2,0,0-.8.6-1.5,1.6-.9,1.1-1,1.8-1,2,0,.4.1.8.2,1,0-.2.2-.5.5-.6.7-.3,1.7.3,2.2.9,1.3,1.7,0,4.7,0,4.7,0,0,.1-.5-.1-1,0-.1-.1-.2-.2-.3-.3-.4-.6-.5-.8-.8-.5-.4-.3-.7-.8-1.4-.3-.3-.6-.5-.8-.6-.2.7-1,3.7.7,6.1.3.4.7.8,1,1.1,0,.4,0,1,.4,1.7.2.3.4.6.5.8,0,.4.3,1,.8,1.6,1.1,1.1,3.2,1,4.4,0,.6-.5.8-1.2.9-1.6.2-.2.4-.5.5-.8.3-.6.3-1.2.3-1.5.3-.3.6-.6.9-.9,1.8-2.3,1.3-5.4,1.1-6.4-.3.1-.6.3-.9.7-.3.3-.2.5-.4.9-.5,1-1.4.9-1.6,1.7,0,.2,0,.4,0,.8-.8-1.6-1.2-5.3,1.1-5.7.6-.2,1.3,0,1.6.7,0-.1.1-.3.2-.5.2-.9-.4-1.7-1-2.5-.3-.4-.8-1-1.5-1.5.6.3,1.1.7,1.5,1.2.1-.7.2-1.5.8-2,1.6-1.4,2.3-3.7,1.9-5.8-.2-1-.7-2-1.4-2.7-.2-.2-.7-.7-1-.5-.2,0-.3.3-.3.5-.2.8-.5.8-1.1,1.8-.4.8-1.3,2.7-2.1,5.4-.3-.3-.3-.7-.5-1.1-.1.1-.2.2-.3.4,0-.4.1-.8.2-1.2,0,0,0,0,0,0-.1.2-.3.4-.4.6v-1.1c-.2.3-.3.5-.5.8,0-.5.2-1,.1-1.6-.6.7-1.3,1.5-1.9,2.6-.1.2-.2.4-.3.6-.4-1.7-.9-3-1.3-3.8-.9-2.1-1.7-2.7-1.8-3.4,0,0,0-.3-.2-.4-.2-.1-.5,0-.6.1-1.3.9-1.9,2.4-2,3.9-.3,2.1.9,4,2.4,5.4ZM23.3,5.8c.1-.3.2-.6.3-.8.2-.6.4-1.1.6-1.7.1-.3.1-.7,0-1,.7.8.9,1.7.9,2.8,0,.7-.2,1.3-.3,1.6-.5,1.3-1.4,2-1.8,2.3.2-.4.3-.7.5-1.1.3-.7.6-1.4.9-2-.1.1-.3.2-.4.4-.3.2-.5.5-.8.7.3-.7.9-1.3,1.2-2-.4.3-.8.6-1.2,1ZM21.2,9.4c0-1,.2-2.2.5-3.6.4-1.6,1-2.8,1.5-3.7-.1,1.1-.3,1.9-.4,2.5-.4,1.8-.5,2.3-.6,3.3,0,.7,0,1.4-.1,2.1,0,0,0,0,0,.1-.5-.3-1-.6-1.5-.9.2,0,.4.2.6.3ZM21.5,21.7c-.4-.5-.6-1.1-1-1.7,0,.7.2,1.3.5,1.9.2.3.4.6.4.9,0,.2.1.8-.2,1.4-.2.3-.3.5-.5.6,0,.2-.3,1.3-1.2,1.9-.5.3-.9.3-1.1.3-.8,0-1.4-.3-1.5-.3-1-.6-1.3-1.6-1.3-1.8-.5-.4-.7-.9-.7-1.6,0-1.2,1-1.5,1-3.1-.3.6-.5,1.1-.9,1.6.5-4.5,6-4.4,6.5,0ZM15.3,9.4c.2,0,.4-.1.7-.2-.5.3-1,.5-1.5.8,0-.3,0-.5,0-.8,0-1.2-.3-2.5-.5-3.7-.2-.7-.3-1.5-.5-2.2,0-.3,0-.6-.1-1,.8,1.4,1.9,3.8,2,7ZM11.4,4.4c0-.7.3-1.2.3-1.3.2-.4.4-.7.6-1,0,.5,0,1.2.3,1.9.2.7.4,1.3.7,1.7-.4-.3-.8-.7-1.2-1,0,0,0,0,0,0,.4.7.9,1.3,1.3,2,0,0,0,0,0,0-.4-.4-.8-.7-1.3-1.1.5.9.9,1.9,1.2,3-.1,0-.3-.2-.5-.4-.7-.7-1-1.4-1.1-1.7,0-.2-.4-1.1-.3-2.2Z"/>
  <path class="cls-1" d="M13.5,16c.1,0,.4-.1.8,0,.4,0,.6.3.7.4-.1-.9-.8-2.1-1.9-1.7-.3,0-.4.4-.4.6.1-.1.2-.1.3-.1.2,0,.5.3.6.8Z"/>
  <path class="cls-1" d="M23.4,14.7c-1.1-.4-1.8.8-1.9,1.7,0,0,.3-.3.7-.4.3,0,.6,0,.8,0,0-.5.3-.8.6-.8,0,0,.1,0,.3.1,0-.2-.2-.5-.4-.6Z"/>
  <path class="cls-1" d="M15.7,23.3c.2.5.9.8,1.3.6.2-.1.4-.4.3-.6,0-.2-.3-.2-.7-.6-.2-.2-.2-.3-.2-.4,0-.1,0-.2,0-.3,0,0-.2-.1-.3-.1-.3,0-.7.8-.5,1.3Z"/>
  <path class="cls-1" d="M19.4,23.9c.4.2,1.1-.1,1.3-.6.2-.6-.1-1.3-.5-1.3,0,0-.2,0-.3.1,0,0,0,.2,0,.3,0,0,0,.2-.2.4-.3.4-.6.4-.7.6,0,.2.1.5.3.6Z"/>
</svg>